<?xml version="1.0" encoding="UTF-8"?> <svg xmlns="http://www.w3.org/2000/svg" width="544" height="135" viewBox="0 0 544 135" fill="none"><path d="M17.0755 129.147H1.68359V25.0117H17.0755V129.147Z" fill="black"></path><path d="M38.72 0L131.312 96.9206V5.77195H146.703V134.198L53.8713 37.2772V129.147H38.4795V0H38.72Z" fill="black"></path><path d="M185.906 98.3638L171.957 129.388H155.362L214.284 0.72168L273.206 129.148H256.612L242.663 98.1233H185.906V98.3638ZM214.284 34.3914L192.399 84.1744H236.17L214.284 34.3914Z" fill="black"></path><path d="M395.618 67.0994V71.9093C395.618 105.82 371.809 131.793 337.177 131.793C302.786 131.793 274.888 101.972 274.888 67.8209C274.888 32.2272 303.267 3.12695 338.861 3.12695C358.1 3.12695 376.859 11.7849 389.125 26.9362L378.302 37.2776C369.404 25.2528 354.493 17.0758 339.582 17.0758C311.925 17.0758 290.28 39.4421 290.28 67.0994C290.28 92.8326 311.444 117.363 338.139 117.363C357.379 117.363 377.821 100.769 378.543 80.8077H346.557V66.8589H395.618V67.0994Z" fill="black"></path><path d="M543.525 67.5801C543.525 104.136 514.665 131.793 478.831 131.793C443.237 131.793 414.137 104.136 414.137 67.5801C414.137 32.2269 443.478 3.36719 478.831 3.36719C514.184 3.36719 543.525 32.2269 543.525 67.5801ZM528.133 67.5801C528.133 40.4038 507.931 17.7971 478.831 17.7971C449.971 17.7971 429.529 40.6443 429.529 67.5801C429.529 95.7183 452.136 117.363 478.831 117.363C505.526 117.363 528.133 95.7183 528.133 67.5801Z" fill="black"></path><path d="M0 5.77246H18.0373L8.41742 18.5188L0 5.77246Z" fill="#ED1C24"></path></svg> 